<svg preserveAspectRatio="none" overflow="visible" style="display: block;" width="24" height="24" viewBox="0 0 24 24" fill="none" xmlns="http://www.w3.org/2000/svg">
<g id="badge">
<path id="Vector (Stroke)" d="M7.76973 14.0644C8.94643 14.9634 10.4092 15.5048 11.9982 15.5048C12.5793 15.5048 13.1414 15.4247 13.6818 15.29C13.4558 15.9773 13.0539 17.0366 12.3342 18.2988C11.1362 20.3996 9.68852 21.8487 9.68379 21.8535L9.63594 21.8955C9.58545 21.9346 9.52785 21.9639 9.46602 21.9814L9.40254 21.9951C9.33943 22.0043 9.2745 22.0013 9.21211 21.9863C9.14976 21.9712 9.09115 21.9442 9.03926 21.9072L8.98945 21.8671C8.94232 21.8234 8.90432 21.7707 8.87715 21.7128L8.85371 21.6533L8.07149 19.2031L5.04805 19.498C4.97231 19.5057 4.89626 19.4956 4.82539 19.4697L4.75606 19.4384C4.68911 19.4015 4.63165 19.35 4.58809 19.288L4.55 19.2236C4.5047 19.1326 4.48761 19.0293 4.50215 18.9287C4.51674 18.8281 4.56191 18.7345 4.63106 18.6601C4.63548 18.6552 5.99332 17.1646 6.95137 15.6132L7.13789 15.3017C7.36009 14.9168 7.56987 14.4917 7.76973 14.0644ZM16.2287 14.0644C16.4281 14.4918 16.6374 14.917 16.8596 15.3017C17.8177 16.9612 19.3693 18.6601 19.3693 18.6601C19.4385 18.7345 19.4837 18.8281 19.4982 18.9287C19.5128 19.0293 19.4957 19.1326 19.4504 19.2236L19.4123 19.288C19.3687 19.35 19.3113 19.4015 19.2443 19.4384C19.1553 19.4875 19.0535 19.5083 18.9523 19.498L15.9289 19.2031L15.1428 21.6533L15.1193 21.7128C15.0922 21.7707 15.0542 21.8234 15.007 21.8671L14.9572 21.9072C14.9053 21.9442 14.8467 21.9712 14.7844 21.9863L14.7209 21.997C14.6573 22.004 14.5924 21.9989 14.5305 21.9814C14.4686 21.9639 14.411 21.9346 14.3605 21.8955L14.3127 21.8535C14.3127 21.8535 13.3205 20.8535 12.299 19.3212C12.4571 19.0745 12.6152 18.816 12.7688 18.5468C13.6274 17.0411 14.0689 15.7685 14.2648 15.1191C14.9787 14.8729 15.6393 14.5144 16.2287 14.0644ZM8.0041 14.954C7.89248 15.1751 7.77764 15.3933 7.65742 15.6015C7.1563 16.4695 6.50825 17.3364 5.99336 17.9785C5.73441 18.3014 5.50605 18.572 5.34199 18.7617C5.3052 18.8042 5.27042 18.8417 5.24043 18.8759L8.01289 18.6064L8.49531 18.5585L9.37324 21.3095C9.405 21.2758 9.44328 21.2356 9.48652 21.1884C9.6347 21.0267 9.84655 20.7884 10.0949 20.4853C10.5927 19.8777 11.2339 19.0168 11.8127 18.0019C12.2291 17.2717 12.5342 16.6121 12.759 16.0595C12.5096 16.0863 12.2562 16.1044 11.9982 16.1044C10.5309 16.1044 9.16409 15.6788 8.0041 14.954ZM15.9924 14.954C15.5988 15.1992 15.182 15.4101 14.7443 15.581C14.5066 16.3105 14.0637 17.4872 13.2902 18.8437C13.2004 19.0012 13.1074 19.1541 13.0158 19.3037C13.4348 19.9048 13.8346 20.4078 14.1457 20.7734C14.3276 20.9871 14.4784 21.1534 14.5822 21.2656C14.5965 21.2809 14.6098 21.2952 14.6223 21.3085L15.3576 19.0195L15.5051 18.5585L15.9875 18.6064L18.7609 18.8769C18.31 18.364 17.1338 16.9764 16.34 15.6015C16.2197 15.3931 16.1039 15.1752 15.9924 14.954ZM17.8996 8.50092C17.8996 5.24837 15.2518 2.60054 11.9992 2.60053C8.74666 2.60053 6.09883 5.24836 6.09883 8.50092C6.09883 11.7539 8.74713 14.4052 11.9992 14.4052C15.2513 14.4052 17.8996 11.7539 17.8996 8.50092ZM6.40254 8.50092C6.40254 5.41109 8.90939 2.90424 11.9992 2.90424V3.50385C9.24076 3.50385 7.00215 5.74246 7.00215 8.50092L7.00899 8.75776C7.14281 11.3972 9.3269 13.5019 11.9992 13.5019C14.6715 13.5019 16.8602 11.3972 16.9943 8.75776L17.0012 8.50092C17.0012 5.8286 14.8956 3.64452 12.2561 3.51069L11.9992 3.50385V2.90424C15.0883 2.90426 17.6008 5.41033 17.6008 8.50092C17.6008 11.5909 15.0889 14.1015 11.9992 14.1015C8.90878 14.1015 6.40254 11.5901 6.40254 8.50092ZM15.8986 8.50092C15.8986 8.13972 15.8475 7.79064 15.7561 7.45893L15.2424 7.95502L14.0324 9.12006L14.3352 10.7851L14.468 11.5224C15.3411 10.807 15.8986 9.72012 15.8986 8.50092ZM10.5461 11.4179L9.88594 11.7812C10.4946 12.1746 11.2196 12.4042 11.9992 12.4042C12.7791 12.4042 13.5037 12.1738 14.1125 11.7802L13.4543 11.4179L12.0002 10.6152L10.5461 11.4179ZM11.1418 7.26069L9.17305 7.52338L10.6145 8.91206L10.2561 10.8925L12.0002 9.93061L13.7443 10.8925L13.385 8.91206L14.8264 7.52338L12.8518 7.26069L12.0002 5.43354L11.1418 7.26069ZM12.5217 7.7226L13.7326 7.88178L12.8469 8.7353L13.0656 9.94233L12.0002 9.35541L10.9289 9.94819L11.1525 8.7353L10.2668 7.88178L11.4729 7.7226L12.0002 6.60639L12.5217 7.7226ZM11.8752 8.27436L11.5783 8.31342L11.801 8.52729L11.7482 8.80854L11.9992 8.66987L12.2492 8.80756L12.1994 8.52631L12.4191 8.31342L12.1174 8.27436L11.9963 8.01752L11.8752 8.27436ZM13.257 6.70893L14.9055 6.92866L15.6076 7.02143C15.0596 5.68268 13.7903 4.72007 12.2795 4.61323L13.257 6.70893ZM11.7219 4.61225C10.2097 4.71803 8.93817 5.68161 8.38984 7.02143L9.09395 6.92866L10.7375 6.70893L11.2326 5.65717L11.4572 5.17866L11.7219 4.61225ZM8.09981 8.50092C8.09981 9.72085 8.65739 10.809 9.53145 11.5244L9.96602 9.12006L8.24141 7.45795C8.1498 7.78986 8.09981 8.13947 8.09981 8.50092ZM16.4924 8.73237C16.3723 11.1129 14.4098 13.0038 11.9992 13.0039C9.5886 13.0039 7.62616 11.1129 7.50606 8.73237L7.5002 8.50092C7.5002 6.01268 9.51098 4.0019 11.9992 4.0019L12.2307 4.00776C14.611 4.12788 16.4982 6.09032 16.4982 8.50092L16.4924 8.73237ZM18.4904 8.83491C18.316 12.2645 15.4711 15.0048 11.9992 15.0048C8.5273 15.0048 5.68245 12.2645 5.50801 8.83491L5.49922 8.50092C5.49922 4.91699 8.41529 2.00092 11.9992 2.00092L12.3332 2.00971C15.7625 2.18417 18.4992 5.02901 18.4992 8.50092L18.4904 8.83491Z" fill="#7E7C7C"/>
</g>
</svg>
