<svg preserveAspectRatio="none" overflow="visible" style="display: block;" width="15.5129" height="22.7169" viewBox="0 0 15.5129 22.7169" fill="none" xmlns="http://www.w3.org/2000/svg">
<g id="Group 222">
<path id="Vector (Stroke)" d="M2.00024 3.20122C1.80692 3.20122 1.64494 3.33826 1.60766 3.52056L1.59985 3.60161L1.59985 20.7168L1.60766 20.7979C1.63965 20.9541 1.76302 21.0774 1.91918 21.1094L2.00024 21.1172H13.5129C13.7338 21.1172 13.9133 20.9378 13.9133 20.7168H15.5129C15.5129 21.8214 14.6175 22.7168 13.5129 22.7168H2.00024C0.895669 22.7168 0.000238419 21.8214 0.000238419 20.7168L0.000238419 3.60161C0.000238419 2.49704 0.89567 1.60161 2.00024 1.60161L13.5129 1.60161C14.6175 1.60161 15.5129 2.49704 15.5129 3.60161H13.9133L13.9055 3.52056C13.8682 3.33828 13.7062 3.20122 13.5129 3.20122L2.00024 3.20122ZM15.5129 20.7168H13.9133L13.9133 3.60161H15.5129L15.5129 20.7168Z" fill="#7E7C7C"/>
<path id="Vector" d="M9.1208 1.21852C9.1208 0.546672 8.50898 1.14441e-05 7.75659 1.14441e-05C7.00419 1.14441e-05 6.39237 0.546672 6.39237 1.21852H4.45687C4.3208 1.21852 4.1903 1.27257 4.09409 1.36879C3.99787 1.465 3.94382 1.5955 3.94382 1.73157V3.32333C3.94382 3.4594 3.99787 3.5899 4.09409 3.68611C4.1903 3.78233 4.3208 3.83638 4.45687 3.83638H11.3128C11.3809 3.83638 11.4461 3.80936 11.4942 3.76125C11.5423 3.71314 11.5694 3.64789 11.5694 3.57985V1.73183C11.5694 1.59576 11.5153 1.46526 11.4191 1.36905C11.3229 1.27283 11.1924 1.21877 11.0563 1.21877L9.1208 1.21852ZM7.75659 0.513067C8.22603 0.513067 8.60774 0.829622 8.60774 1.21852C8.60774 1.30548 8.5862 1.38757 8.55156 1.46427L8.21141 1.73183H7.30176L6.96161 1.46427C6.92549 1.3874 6.90625 1.3037 6.90517 1.21877C6.90517 0.829622 7.28714 0.513067 7.75659 0.513067Z" fill="#7E7C7C"/>
<path id="Vector_2" d="M6.75941 14.1006C6.61678 14.1006 6.47466 14.0495 6.36179 13.9474L5.12994 12.8326C5.07021 12.781 5.02139 12.7179 4.98636 12.6472C4.95133 12.5765 4.93079 12.4994 4.92595 12.4206C4.92111 12.3419 4.93207 12.2629 4.95818 12.1884C4.98429 12.1139 5.02502 12.0454 5.07799 11.9869C5.13096 11.9283 5.19509 11.881 5.26662 11.8476C5.33815 11.8142 5.41563 11.7954 5.49451 11.7924C5.57339 11.7894 5.65208 11.8022 5.72595 11.83C5.79982 11.8578 5.86738 11.9002 5.92467 11.9545L6.77454 12.7235L9.60661 10.3553C9.72785 10.2615 9.88068 10.2184 10.033 10.235C10.1854 10.2515 10.3254 10.3264 10.4237 10.444C10.522 10.5616 10.5709 10.7127 10.5602 10.8655C10.5494 11.0184 10.4799 11.1612 10.3662 11.2639L7.13907 13.9626C7.02902 14.0549 6.89434 14.1006 6.75941 14.1006Z" fill="#7E7C7C"/>
</g>
</svg>
